<?xml version="1.0" standalone="no"?>
<!DOCTYPE svg PUBLIC "-//W3C//DTD SVG 20010904//EN"
 "http://www.w3.org/TR/2001/REC-SVG-20010904/DTD/svg10.dtd">
<svg version="1.0" xmlns="http://www.w3.org/2000/svg"
 width="300.000000pt" height="300.000000pt" viewBox="0 0 300.000000 300.000000"
 preserveAspectRatio="xMidYMid meet">
<metadata>
Created by potrace 1.10, written by Peter Selinger 2001-2011
</metadata>
<g transform="translate(0.000000,300.000000) scale(0.100000,-0.100000)"
fill="#000000" stroke="none">
<path d="M400 2706 l0 -134 313 -7 c171 -4 387 -6 480 -4 l167 4 0 -1042 0
-1043 138 0 137 0 0 1043 0 1042 481 3 480 2 0 135 -1 135 -1097 0 -1098 0 0
-134z"/>
<path d="M390 2260 l0 -130 125 0 125 0 0 -605 0 -605 130 0 130 0 0 605 0
605 120 0 120 0 0 130 0 130 -375 0 -375 0 0 -130z"/>
<path d="M1847 2343 c-4 -3 -7 -314 -7 -690 l0 -683 381 0 382 0 -7 77 c-3 42
-6 100 -6 130 l0 53 -142 0 c-79 0 -186 3 -239 6 l-97 7 -6 291 c-3 160 -3
347 2 416 l7 125 244 0 243 0 -6 59 c-3 32 -6 94 -6 137 l0 79 -368 0 c-203 0
-372 -3 -375 -7z"/>
<path d="M406 720 c-3 -19 -6 -81 -6 -138 l0 -103 375 2 375 1 0 137 0 136
-369 0 -369 0 -6 -35z"/>
<path d="M1846 652 c-3 -58 -6 -120 -6 -139 l0 -33 380 0 381 0 -7 133 c-4 72
-8 133 -9 135 -1 2 -167 4 -367 6 l-365 3 -7 -105z"/>
<path d="M1451 256 c-7 -8 -11 -34 -9 -58 l3 -43 45 -3 c33 -3 47 1 57 14 18
24 16 69 -3 88 -19 20 -78 21 -93 2z"/>
</g>
</svg>
